<?xml version="1.0" encoding="utf-8"?>
<!-- Generator: Adobe Illustrator 15.0.0, SVG Export Plug-In . SVG Version: 6.00 Build 0)  -->
<!DOCTYPE svg PUBLIC "-//W3C//DTD SVG 1.1//EN" "http://www.w3.org/Graphics/SVG/1.1/DTD/svg11.dtd">
<svg version="1.1" xmlns="http://www.w3.org/2000/svg" xmlns:xlink="http://www.w3.org/1999/xlink" x="0px" y="0px" width="96px"
	 height="96px" viewBox="0 0 96 96" enable-background="new 0 0 96 96" xml:space="preserve">
<g id="DO_NOT_EDIT_-_BOUNDING_BOX">
	<rect id="BOUNDING_BOX" fill="none" width="96" height="96"/>
</g>
<g id="DO_NOT_EDIT_-_SHADOW">
	<path id="SHADOW" opacity="0.4" d="M88.023,49c0,29.633-10.364,40-40,40c-29.635,0-40-10.367-40-40c0-29.634,10.366-40,40-40
		C77.659,9,88.023,19.365,88.023,49z"/>
</g>
<g id="GRAY_BACKGROUNDS">
	<g id="GRAY5">
		<linearGradient id="GRAY_5_1_" gradientUnits="userSpaceOnUse" x1="48.0005" y1="87.9893" x2="48.0005" y2="8.0112">
			<stop  offset="0.0364" style="stop-color:#6D0019"/>
			<stop  offset="0.5428" style="stop-color:#8B0121"/>
			<stop  offset="1" style="stop-color:#A90329"/>
		</linearGradient>
		<path id="GRAY_5" fill-rule="evenodd" clip-rule="evenodd" fill="url(#GRAY_5_1_)" d="M8,47.989c0,29.633,10.365,40,40,40
			c29.637,0,40-10.367,40-40c0-28.985-9.926-39.53-38.091-39.979h-3.817C17.928,8.459,8,19.004,8,47.989z"/>
		<linearGradient id="HIGHLIGHT_GRA5_1_" gradientUnits="userSpaceOnUse" x1="47.9995" y1="8" x2="47.9995" y2="88.0005">
			<stop  offset="0.0364" style="stop-color:#FFFFFF"/>
			<stop  offset="0.3366" style="stop-color:#E1E1E3"/>
			<stop  offset="0.9874" style="stop-color:#96969A"/>
			<stop  offset="1" style="stop-color:#949499"/>
		</linearGradient>
		<path id="HIGHLIGHT_GRA5" opacity="0.25" fill="url(#HIGHLIGHT_GRA5_1_)" d="M48,8C18.365,8,8,18.365,8,48
			c0,29.633,10.365,40,40,40c29.637,0,40-10.367,40-40C88,18.365,77.637,8,48,8z M48,87.023C18.842,87.023,9,77.176,9,48
			S18.842,8.977,48,8.977S87,18.824,87,48S77.158,87.023,48,87.023z"/>
	</g>
</g>
<g id="PLACE_YOUR_GRAPHIC_HERE">
	<g id="PLACE_YOUR_GRAPHIC_HERE_1_">
		<g>
			<path opacity="0.15" enable-background="new    " d="M68.088,53.487c-1.372,1.372-3.672,2.012-5.466,1.521l-6.647-1.15
				l-1.592,1.592c-0.317,0.315-0.785,0.428-1.212,0.285l-2.348-0.781L35.128,70.649c-0.222,0.223-0.523,0.35-0.837,0.348h-8.106
				c-0.654,0-1.184-0.529-1.184-1.184v-8.106c0-0.313,0.125-0.614,0.347-0.837l1.013-1.014c0.221-0.221,0.523-0.347,0.838-0.347
				h1.536l0.32-0.321v-1.534c0-0.313,0.125-0.616,0.347-0.837l1.015-1.014c0.221-0.222,0.522-0.349,0.837-0.349h1.536l1.333-1.334
				v-1.534c0-0.313,0.125-0.614,0.347-0.836l3.041-3.042c0.222-0.221,0.524-0.347,0.837-0.347l1.534,0.001l0.322-0.321v-1.534
				c0-0.315,0.125-0.616,0.347-0.838l0.496-0.498l-0.782-2.346c-0.141-0.426-0.032-0.896,0.285-1.211l1.592-1.592l-1.172-6.755
				c-0.467-1.685,0.171-3.984,1.543-5.355c0.121-0.121,0.245-0.234,0.374-0.336l5.656-4.524c1.461-1.168,3.611-2.051,5.005-2.05
				c1.434,0,3.539,1.019,4.891,2.373l14.188,14.186c1.352,1.352,2.371,3.456,2.371,4.892c0,1.393-0.881,3.545-2.049,5.004
				l-4.523,5.657C68.318,53.242,68.209,53.366,68.088,53.487L68.088,53.487z M52.863,30.624c-0.377,0.376-0.375,0.988,0.002,1.364
				l11.146,11.148c0.376,0.376,0.988,0.377,1.366,0.001c0.377-0.377,0.377-0.991,0-1.367L54.229,30.624
				C53.854,30.246,53.24,30.246,52.863,30.624L52.863,30.624z"/>
			<path opacity="0.3" enable-background="new    " d="M54.381,23.023c-1.112-0.001-3.032,0.805-4.265,1.791l-5.654,4.524
				c-1.232,0.985-1.908,3.044-1.493,4.564l1.278,7.36l-2.025,2.027l1.013,3.039l-1.013,1.015v2.026l-1.014,1.014l-2.025-0.002
				l-3.041,3.042l0.001,2.024l-2.028,2.029H32.09l-1.014,1.014l0.001,2.025l-1.015,1.014h-2.026l-1.013,1.012v8.107h8.106
				l16.213-16.213l3.042,1.012l2.026-2.025L63.77,54.7c1.521,0.416,3.58-0.258,4.565-1.488l4.524-5.656
				c0.984-1.232,1.789-3.152,1.789-4.265c0-1.115-0.911-2.939-2.026-4.055L58.436,25.05C57.321,23.936,55.497,23.023,54.381,23.023z
				 M67.049,41.77c0.842,0.839,0.84,2.202,0.002,3.04c-0.84,0.84-2.2,0.84-3.04,0L52.863,33.662c-0.838-0.838-0.838-2.2,0-3.038
				c0.837-0.839,2.201-0.839,3.039,0L67.049,41.77z"/>
			
				<linearGradient id="SVGID_1_" gradientUnits="userSpaceOnUse" x1="-355.2153" y1="-59.1753" x2="-355.2153" y2="-25.3745" gradientTransform="matrix(0.7071 -0.7071 -0.7071 -0.7071 266.7188 -230.504)">
				<stop  offset="0" style="stop-color:#D0CBC5"/>
				<stop  offset="0.5031" style="stop-color:#FAFCEF"/>
				<stop  offset="0.9693" style="stop-color:#FFFFFF"/>
			</linearGradient>
			<path fill="url(#SVGID_1_)" d="M53.545,22.187c-1.113-0.001-3.034,0.804-4.264,1.791l-5.657,4.524
				c-1.232,0.985-1.907,3.044-1.493,4.564l1.28,7.36l-2.025,2.025l1.013,3.041l-1.014,1.013v2.028l-1.014,1.013l-2.025-0.001
				l-3.041,3.04l0.001,2.025l-2.028,2.028l-2.028,0.001l-1.013,1.014l0.001,2.024l-1.014,1.015h-2.027l-1.013,1.014v8.106h8.106
				L50.505,53.6l3.039,1.012l2.026-2.025l7.362,1.282c1.521,0.412,3.579-0.262,4.563-1.494l4.523-5.656
				c0.985-1.23,1.793-3.15,1.793-4.262c0-1.117-0.914-2.941-2.029-4.056L57.598,24.214C56.484,23.098,54.66,22.186,53.545,22.187z
				 M66.211,40.933c0.84,0.838,0.84,2.201,0,3.039c-0.838,0.839-2.2,0.838-3.037,0L52.025,32.825c-0.837-0.839-0.84-2.2,0-3.04
				c0.838-0.837,2.199-0.838,3.039,0L66.211,40.933z"/>
			<path fill="#FFFFFF" d="M66.211,43.972c-0.838,0.839-2.2,0.838-3.037,0l0.835,0.837c0.839,0.84,2.202,0.84,3.04,0
				c0.84-0.839,0.84-2.2,0-3.04l-0.838-0.836C67.051,41.771,67.051,43.134,66.211,43.972z M53.545,22.187
				c-1.113-0.001-3.034,0.804-4.264,1.791l-5.657,4.524c-1.232,0.985-1.907,3.044-1.493,4.564l1.28,7.36l-2.025,2.025l1.013,3.041
				l-1.014,1.013v2.028l-1.014,1.013l-2.025-0.001l-3.041,3.04l0.001,2.025l-2.028,2.028l-2.028,0.001l-1.013,1.014l0.001,2.024
				l-1.014,1.015h-2.027l-1.013,1.014v8.106h0.837v-7.271l1.013-1.012h2.026l1.015-1.014l-0.001-2.025l1.014-1.014h2.026
				l2.028-2.029l-0.001-2.024l3.041-3.042l2.025,0.002l1.014-1.014v-2.026l1.013-1.015l-1.013-3.039l2.025-2.027l-1.278-7.36
				c-0.415-1.521,0.26-3.58,1.493-4.564l5.654-4.524c1.232-0.985,3.151-1.792,4.265-1.791c1.116,0,2.94,0.913,4.055,2.027
				l-0.838-0.838C56.484,23.098,54.66,22.186,53.545,22.187z"/>
		</g>
	</g>
</g>
<g id="DO_NOT_EDIT_-_FOCAL_ZONE_GUIDES_ONLY" display="none">
</g>
</svg>
