<?xml version="1.0" encoding="utf-8"?>
<!-- Generator: Adobe Illustrator 15.0.2, SVG Export Plug-In . SVG Version: 6.00 Build 0)  -->
<!DOCTYPE svg PUBLIC "-//W3C//DTD SVG 1.1//EN" "http://www.w3.org/Graphics/SVG/1.1/DTD/svg11.dtd">
<svg version="1.1" id="Layer_1" xmlns="http://www.w3.org/2000/svg" xmlns:xlink="http://www.w3.org/1999/xlink" x="0px" y="0px"
	 width="30px" height="30px" viewBox="0 0 30 30" enable-background="new 0 0 30 30" xml:space="preserve">
<g id="DO_NOT_EDIT_-_BOUNDING_BOX">
	
		<rect id="BOUNDING_BOX" x="-2.203" y="1.797" transform="matrix(-0.7071 0.7071 -0.7071 -0.7071 34.2132 19.8284)" fill="none" width="30.406" height="30.406"/>
</g>
<g id="PLACE_YOUR_GRAPHIC_HERE">
	<g>
		<path opacity="0.3" enable-background="new    " d="M16.849,1.793C16.297,1.799,15.344,2.205,14.73,2.7l-2.82,2.264
			c-0.613,0.493-0.958,1.516-0.76,2.267l0.232,3.266l-1.012,1.012L10.7,12.85l-0.507,0.506l-0.01,1.002l-0.505,0.505l-1.001,0.009
			l-1.519,1.52l-0.01,1.001l-1.013,1.013l-1.002,0.011l-0.507,0.507l-0.009,1.001l-0.507,0.508l-1.002,0.011l-0.505,0.505
			L2.25,26.317l5.369-0.353l8.098-8.097l1.341,0.33l1.012-1.012l3.268,0.231c0.751,0.197,1.771-0.146,2.267-0.761l2.263-2.82
			c0.493-0.613,0.901-1.568,0.906-2.117c0.008-0.552-0.436-1.45-0.981-1.996l-6.947-6.947C18.297,2.23,17.4,1.787,16.849,1.793z
			 M23.154,10.431c0.462,0.462,0.461,1.21-0.001,1.672c-0.463,0.462-1.21,0.463-1.672,0l-5.018-5.017
			c-0.463-0.463-0.462-1.211,0-1.673c0.463-0.461,1.21-0.462,1.673,0L23.154,10.431z"/>
		<path opacity="0.15" enable-background="new    " d="M24.913,18.229c-0.771,0.769-1.994,1.134-3.014,0.911l-2.724-0.193
			l-0.685,0.686c-0.251,0.251-0.614,0.353-0.957,0.268l-0.788-0.194l-7.693,7.693c-0.174,0.174-0.405,0.279-0.65,0.295l-5.369,0.353
			c-0.292,0.019-0.577-0.089-0.783-0.295c-0.206-0.207-0.313-0.492-0.294-0.783l0.352-5.369c0.016-0.245,0.121-0.477,0.294-0.65
			l0.505-0.505c0.188-0.188,0.441-0.294,0.707-0.296l0.512-0.006l0.003-0.509c0.002-0.266,0.109-0.521,0.296-0.708l0.506-0.506
			c0.188-0.188,0.441-0.294,0.707-0.297l0.59-0.007l0.426-0.426l0.006-0.589c0.002-0.265,0.109-0.519,0.297-0.706l1.52-1.52
			c0.188-0.188,0.442-0.294,0.708-0.296l0.507-0.004l0.005-0.508c0.002-0.266,0.109-0.519,0.297-0.707l0.103-0.103l-0.193-0.787
			c-0.086-0.343,0.015-0.707,0.266-0.958l0.685-0.685l-0.194-2.724c-0.225-1.021,0.142-2.245,0.911-3.014
			c0.071-0.071,0.143-0.136,0.22-0.197l2.82-2.264c0.688-0.555,1.853-1.121,2.744-1.13c0.931-0.011,2.075,0.635,2.72,1.28
			l6.947,6.947c0.644,0.643,1.291,1.786,1.28,2.724c-0.009,0.886-0.576,2.05-1.131,2.741l-2.264,2.82
			C25.049,18.086,24.983,18.158,24.913,18.229z M17.897,6.848c-0.065,0.065-0.065,0.173,0,0.239l5.017,5.017
			c0.065,0.066,0.173,0.065,0.239,0c0.065-0.066,0.066-0.173,0.001-0.238l-5.018-5.017C18.071,6.782,17.964,6.782,17.897,6.848z"/>
		<path opacity="0.15" enable-background="new    " d="M17.564,2.511c-0.55,0.004-1.504,0.411-2.118,0.906l-2.82,2.264
			c-0.613,0.492-0.958,1.515-0.76,2.266l0.231,3.266l-1.012,1.012l0.331,1.341l-0.507,0.507l-0.01,1.001l-0.505,0.506L9.393,15.59
			l-1.519,1.519l-0.01,1.002l-1.013,1.013l-1.002,0.011l-0.507,0.507l-0.008,1.001l-0.508,0.508L3.823,21.16l-0.505,0.505
			l-0.351,5.369l5.369-0.353l8.097-8.097l1.341,0.33l1.012-1.013l3.268,0.232c0.751,0.197,1.771-0.146,2.267-0.761l2.263-2.821
			c0.492-0.613,0.901-1.568,0.906-2.117c0.008-0.552-0.436-1.449-0.981-1.995l-6.946-6.946C19.014,2.947,18.117,2.503,17.564,2.511z
			 M23.871,11.147c0.462,0.463,0.461,1.21-0.001,1.672c-0.463,0.461-1.21,0.463-1.672,0l-5.018-5.017
			c-0.463-0.463-0.462-1.21,0-1.673c0.462-0.462,1.21-0.463,1.673,0L23.871,11.147z"/>
		<path fill="#FFFFFF" d="M17.564,2.511c-0.55,0.004-1.504,0.411-2.118,0.906l-2.82,2.264c-0.613,0.492-0.958,1.515-0.76,2.266
			l0.231,3.266l-1.012,1.012l0.331,1.341l-0.507,0.507l-0.01,1.001l-0.505,0.506L9.393,15.59l-1.519,1.519l-0.01,1.002l-1.013,1.013
			l-1.002,0.011l-0.507,0.507l-0.008,1.001l-0.508,0.508L3.823,21.16l-0.505,0.505l-0.351,5.369l5.369-0.353l8.097-8.097l1.341,0.33
			l1.012-1.013l3.268,0.232c0.751,0.197,1.771-0.146,2.267-0.761l2.263-2.821c0.492-0.613,0.901-1.568,0.906-2.117
			c0.008-0.552-0.436-1.449-0.981-1.995l-6.946-6.946C19.014,2.947,18.117,2.503,17.564,2.511z M23.871,11.147
			c0.462,0.463,0.461,1.21-0.001,1.672c-0.463,0.461-1.21,0.463-1.672,0l-5.018-5.017c-0.463-0.463-0.462-1.21,0-1.673
			c0.462-0.462,1.21-0.463,1.673,0L23.871,11.147z"/>
		
			<rect x="-2.203" y="1.797" transform="matrix(-0.7071 0.7071 -0.7071 -0.7071 34.2132 19.8284)" fill="none" width="30.406" height="30.406"/>
	</g>
</g>
</svg>
