<?xml version="1.0" encoding="utf-8"?>
<!-- Generator: Adobe Illustrator 15.0.2, SVG Export Plug-In . SVG Version: 6.00 Build 0)  -->
<!DOCTYPE svg PUBLIC "-//W3C//DTD SVG 1.1//EN" "http://www.w3.org/Graphics/SVG/1.1/DTD/svg11.dtd">
<svg version="1.1" id="Layer_1" xmlns="http://www.w3.org/2000/svg" xmlns:xlink="http://www.w3.org/1999/xlink" x="0px" y="0px"
	 width="30px" height="30px" viewBox="0 0 30 30" enable-background="new 0 0 30 30" xml:space="preserve">
<g id="DO_NOT_EDIT_-_BOUNDING_BOX">
	<rect id="BOUNDING_BOX" fill="none" width="30" height="30"/>
</g>
<g id="PLACE_YOUR_GRAPHIC_HERE">
	<g>
		<polygon opacity="0.3" enable-background="new    " points="17.27,9.885 17.27,2.5 11.731,2.5 11.731,9.885 4.346,9.885 
			4.346,15.423 11.731,15.423 11.731,22.808 17.27,22.808 17.27,15.423 24.654,15.423 24.654,9.885 		"/>
		<rect fill="none" width="30" height="30"/>
		<path opacity="0.15" enable-background="new    " d="M11.731,26.5c-1.019,0-1.846-0.826-1.846-1.846v-5.539H4.346
			c-1.019,0-1.846-0.825-1.846-1.846v-5.539c0-1.019,0.828-1.846,1.846-1.846h5.539V4.346c0-1.019,0.827-1.846,1.846-1.846h5.539
			c1.021,0,1.846,0.828,1.846,1.846v5.539h5.539c1.02,0,1.846,0.827,1.846,1.846v5.539c0,1.021-0.826,1.846-1.846,1.846h-5.539
			v5.539c0,1.02-0.825,1.846-1.846,1.846H11.731z"/>
		<polygon opacity="0.15" enable-background="new    " points="17.27,11.731 17.27,4.346 11.731,4.346 11.731,11.731 4.346,11.731 
			4.346,17.27 11.731,17.27 11.731,24.654 17.27,24.654 17.27,17.27 24.654,17.27 24.654,11.731 		"/>
		<polygon fill="#FFFFFF" points="17.27,11.731 17.27,4.346 11.731,4.346 11.731,11.731 4.346,11.731 4.346,17.27 11.731,17.27 
			11.731,24.654 17.27,24.654 17.27,17.27 24.654,17.27 24.654,11.731 		"/>
	</g>
</g>
</svg>
